<svg width="244px" height="364px" viewBox="0 0 244 364" version="1.1" xmlns="http://www.w3.org/2000/svg" xmlns:xlink="http://www.w3.org/1999/xlink" xmlns:sketch="http://www.bohemiancoding.com/sketch/ns" data-draggable=true data-id="{{_id}}">
    <!-- Generator: Sketch 3.3.3 (12081) - http://www.bohemiancoding.com/sketch -->
    <title>UNO_cards_deck</title>
    <desc>Created with Sketch.</desc>
    <defs></defs>
    <g id="Page-1" stroke="none" stroke-width="1" fill="none" fill-rule="evenodd" sketch:type="MSPage">
        <g id="drawTwo" sketch:type="MSLayerGroup" transform="translate(1.854992, 0.682806)">
            <rect id="rect2987-8-5-81-7-0-2" stroke="#000000" stroke-width="2" fill="#FFFFFF" sketch:type="MSShapeGroup" x="0" y="1.44835705" width="240.321249" height="359.909808" rx="10"></rect>
            <rect id="rect3757-26-33-5-2-5-8" fill="{{hexColor}}" sketch:type="MSShapeGroup" x="20.0267708" y="21.4433464" width="200.267708" height="319.91983" rx="5"></rect>
            <path d="M180.240937,81.4282345 C91.7570962,81.4282345 20.0267708,153.044728 20.0267708,241.388149 C20.0267708,263.474015 37.9593421,281.378128 60.0803123,281.378128 C148.564153,281.378128 220.294479,209.761635 220.294479,121.418213 C220.294479,99.3323478 202.361907,81.4282345 180.240937,81.4282345 L180.240937,81.4282345 Z" id="path3773-0-4-8-4-60-3-86-29-1-2" fill="#FFFFFF" sketch:type="MSShapeGroup"></path>
            <rect id="rect6095-5-1-9" stroke="#000000" stroke-width="2.03962348" fill="#FFFFFF" sketch:type="MSShapeGroup" x="82.9679827" y="151.410589" width="34.3315209" height="89.9774972" rx="2.5"></rect>
            <rect id="rect6097-3-5-4" fill="{{hexColor}}" sketch:type="MSShapeGroup" x="90.1203375" y="161.408277" width="20.0267134" height="69.9824641" rx="2.4999874"></rect>
            <rect id="rect6095-1-9-4" stroke="#000000" stroke-width="2.03962348" fill="#FFFFFF" sketch:type="MSShapeGroup" x="123.021367" y="121.418142" width="34.3315209" height="89.9774972" rx="2.5"></rect>
            <rect id="rect6097-8-08-8" fill="{{hexColor}}" sketch:type="MSShapeGroup" x="130.17371" y="131.415868" width="20.0267134" height="69.9824641" rx="2.4999874"></rect>
            <path d="M34.0455103,51.4356705 L34.0455103,61.4332451 L24.0321249,61.4332451 L24.0321249,71.4305798 L34.0455103,71.4305798 L34.0455103,81.4281545 L44.0588957,81.4281545 L44.0588957,71.4305798 L54.0722811,71.4305798 L54.0722811,61.4332451 L44.0588957,61.4332451 L44.0588957,51.4356705 L34.0455103,51.4356705 L34.0455103,51.4356705 Z" id="rect5649-4-2-7-6-2" fill="#FFFFFF" sketch:type="MSShapeGroup"></path>
            <path d="M80.1070831,31.4407611 C69.0122521,31.4407611 60.0803123,40.3585263 60.0803123,51.4357504 L60.0803123,53.4352494 L70.0936977,53.4352494 L70.0936977,51.4357504 C70.0936977,45.8971384 74.5596676,41.4382558 80.1070831,41.4382558 C85.6544986,41.4382558 90.1204685,45.8971384 90.1204685,51.4357504 C90.1204685,53.6901855 88.246924,58.1143568 86.2904287,59.6517316 C75.6666273,67.9995196 75.7787772,66.6208651 60.0803123,77.4292366 L60.0803123,91.4257292 L80.1070831,91.4257292 L100.133854,91.4257292 L100.133854,81.4282345 L100.133854,77.4292366 L90.1204685,77.4292366 L90.1204685,81.4282345 L80.1070831,81.4282345 L72.0963748,81.4282345 C84.4930661,72.7129385 85.3995578,72.9241656 95.1133027,64.2450605 C98.225623,61.4642374 100.133854,55.9450204 100.133854,51.4357504 C100.133854,40.3585263 91.2019141,31.4407611 80.1070831,31.4407611 L80.1070831,31.4407611 Z" id="rect3163-52-9-8-1-1-2-7-3-6-0-9-5-9-2-20-7" fill="#FFFFFF" sketch:type="MSShapeGroup"></path>
            <path d="M206.275739,311.371132 L206.275739,301.373637 L216.289124,301.373637 L216.289124,291.376542 L206.275739,291.376542 L206.275739,281.378648 L196.262354,281.378648 L196.262354,291.376542 L186.248968,291.376542 L186.248968,301.373637 L196.262354,301.373637 L196.262354,311.371132 L206.275739,311.371132 L206.275739,311.371132 Z" id="rect5649-4-2-7-0-2-2" fill="#FFFFFF" sketch:type="MSShapeGroup"></path>
            <path d="M160.214166,331.366121 C171.308997,331.366121 180.240937,322.448356 180.240937,311.371132 L180.240937,309.371633 L170.227552,309.371633 L170.227552,311.371132 C170.227552,316.909744 165.761582,321.368627 160.214166,321.368627 C154.666751,321.368627 150.200781,316.909744 150.200781,311.371132 C150.200781,309.116897 152.074325,304.692805 154.030821,303.155191 C164.654622,294.807683 164.542472,296.186137 180.240937,285.377646 L180.240937,271.381153 L160.214166,271.381153 L140.187395,271.381153 L140.187395,281.378648 L140.187395,285.377646 L150.200781,285.377646 L150.200781,281.378648 L160.214166,281.378648 L168.224875,281.378648 C155.828183,290.094064 154.921691,289.882917 145.207947,298.561942 C142.095626,301.342845 140.187395,306.861862 140.187395,311.371132 C140.187395,322.448356 149.119335,331.366121 160.214166,331.366121 L160.214166,331.366121 Z" id="rect3163-52-9-8-1-1-2-7-3-6-0-9-5-9-2-2-8-5" fill="#FFFFFF" sketch:type="MSShapeGroup"></path>
        </g>
    </g>
</svg>