<svg width="244px" height="364px" viewBox="0 0 244 364" version="1.1" xmlns="http://www.w3.org/2000/svg" xmlns:xlink="http://www.w3.org/1999/xlink" xmlns:sketch="http://www.bohemiancoding.com/sketch/ns" data-draggable=true data-id="{{_id}}">
    <!-- Generator: Sketch 3.3.3 (12081) - http://www.bohemiancoding.com/sketch -->
    <title>reverse</title>
    <desc>Created with Sketch.</desc>
    <defs></defs>
    <g id="Page-1" stroke="none" stroke-width="1" fill="none" fill-rule="evenodd" sketch:type="MSPage">
        <g id="reverse" sketch:type="MSLayerGroup" transform="translate(1.533742, 0.370598)">
            <rect id="rect2987-8-5-81-25-4" stroke="#000000" stroke-width="2" fill="#FFFFFF" sketch:type="MSShapeGroup" x="0" y="1.44835705" width="240.321249" height="359.909808" rx="10"></rect>
            <rect id="rect3757-26-33-5-8-8" fill="{{hexColor}}" sketch:type="MSShapeGroup" x="20.0267708" y="21.4433464" width="200.267708" height="319.91983" rx="5"></rect>
            <path d="M180.240937,81.4282745 C91.7570962,81.4282745 20.0267708,153.044768 20.0267708,241.388189 C20.0267708,263.474055 37.9593421,281.378168 60.0803123,281.378168 C148.564153,281.378168 220.294479,209.761675 220.294479,121.418253 C220.294479,99.3323878 202.361907,81.4282745 180.240937,81.4282745 L180.240937,81.4282745 Z" id="path3773-0-4-8-4-60-3-86-6-5" fill="#FFFFFF" sketch:type="MSShapeGroup"></path>
            <path d="M120.160625,116.419506 L130.17401,126.417001 L90.1204685,166.406979 C80.1070831,176.404474 80.1070831,196.399463 90.1204685,206.396958 L110.147239,186.401969 L150.200781,146.41199 L160.214166,156.409485 L160.214166,116.419506 L120.160625,116.419506 Z" id="path5973-41-9" fill="{{hexColor}}" sketch:type="MSShapeGroup"></path>
            <path d="M120.160625,246.386937 L110.147239,236.389442 L150.200781,196.399463 C160.214166,186.401969 160.214166,166.406979 150.200781,156.409485 L130.17401,176.404474 L90.1204685,216.394453 L80.1070831,206.396958 L80.1070831,246.386937 L120.160625,246.386937 Z" id="path5973-4-6-2" fill="{{hexColor}}" sketch:type="MSShapeGroup"></path>
            <path d="M50.0669269,31.4407611 L55.0736196,36.4395084 L35.0468489,56.4344978 C30.0401562,61.4332451 30.0401562,71.4307398 35.0468489,76.4294871 L45.0602342,66.4319925 L65.087005,46.4370031 L70.0936977,51.4357504 L70.0936977,31.4407611 L50.0669269,31.4407611 Z" id="path5973-6-5-5" fill="#FFFFFF" sketch:type="MSShapeGroup"></path>
            <path d="M50.0669269,96.4244765 L45.0602342,91.4257292 L65.087005,71.4307398 C70.0936977,66.4319925 70.0936977,56.4344978 65.087005,51.4357504 L55.0736196,61.4332451 L35.0468489,81.4282345 L30.0401562,76.4294871 L30.0401562,96.4244765 L50.0669269,96.4244765 Z" id="path5973-4-3-5-4" fill="#FFFFFF" sketch:type="MSShapeGroup"></path>
            <path d="M190.254322,266.381886 L195.261015,271.380633 L175.234244,291.375623 C170.227552,296.37437 170.227552,306.371865 175.234244,311.370612 L185.24763,301.373117 L205.2744,281.378128 L210.281093,286.376875 L210.281093,266.381886 L190.254322,266.381886 Z" id="path5973-6-5-2-1" fill="#FFFFFF" sketch:type="MSShapeGroup"></path>
            <path d="M190.254322,331.365601 L185.24763,326.366854 L205.2744,306.371865 C210.281093,301.373117 210.281093,291.375623 205.2744,286.376875 L195.261015,296.37437 L175.234244,316.369359 L170.227552,311.370612 L170.227552,331.365601 L190.254322,331.365601 Z" id="path5973-4-3-5-8-3" fill="#FFFFFF" sketch:type="MSShapeGroup"></path>
        </g>
    </g>
</svg>