<svg width="244px" height="364px" viewBox="0 0 244 364" version="1.1" xmlns="http://www.w3.org/2000/svg" xmlns:xlink="http://www.w3.org/1999/xlink" xmlns:sketch="http://www.bohemiancoding.com/sketch/ns" data-draggable=true data-id="{{_id}}">
    <!-- Generator: Sketch 3.3.3 (12081) - http://www.bohemiancoding.com/sketch -->
    <title>skip</title>
    <desc>Created with Sketch.</desc>
    <defs></defs>
    <g id="Page-1" stroke="none" stroke-width="1" fill="none" fill-rule="evenodd" sketch:type="MSPage">
        <g id="skip" sketch:type="MSLayerGroup" transform="translate(1.176241, 1.279404)">
            <rect id="rect2987-8-5-81-5-9" stroke="#000000" stroke-width="2" fill="#FFFFFF" sketch:type="MSShapeGroup" x="0" y="0.448357049" width="240.321249" height="359.909808" rx="10"></rect>
            <rect id="rect3757-26-33-5-3-0" fill="{{hexColor}}" sketch:type="MSShapeGroup" x="20.0267708" y="20.4433464" width="200.267708" height="319.91983" rx="5"></rect>
            <path d="M180.240937,80.4282745 C91.7570962,80.4282745 20.0267708,152.044768 20.0267708,240.388189 C20.0267708,262.474055 37.9593421,280.378168 60.0803123,280.378168 C148.564153,280.378168 220.294479,208.761675 220.294479,120.418253 C220.294479,98.3323878 202.361907,80.4282745 180.240937,80.4282745 L180.240937,80.4282745 Z" id="path3773-0-4-8-4-60-3-86-2-5" fill="#FFFFFF" sketch:type="MSShapeGroup"></path>
            <path d="M120.285792,120.418413 C104.909918,120.398418 89.4756065,126.2166 77.7289041,137.914029 C54.2354993,161.309046 54.171694,199.311643 77.603937,222.767765 C101.03614,246.223887 139.099141,246.287591 162.592545,222.892534 C186.08595,199.497516 186.149756,161.49492 162.717513,138.038798 C151.001411,126.310737 135.661666,120.438248 120.285792,120.418213 L120.285792,120.418413 Z M120.160825,140.413402 C127.169714,140.4214 134.210486,142.253301 140.43793,145.912025 L85.6146453,200.648308 C76.5611431,185.300914 78.6581062,165.195192 91.8730112,152.03549 C99.7041595,144.237164 109.910242,140.400086 120.160825,140.413402 L120.160825,140.413402 Z M154.707005,160.033486 C163.82307,175.392557 161.689899,195.585377 148.448639,208.771272 C135.220155,221.944331 115.112517,223.880606 99.7585522,214.769769 L154.707005,160.033486 L154.707005,160.033486 Z" id="path5897-6-5-3" fill="{{hexColor}}" sketch:type="MSShapeGroup"></path>
            <path d="M60.1427157,30.4408011 C52.4562409,30.4288041 44.7405269,33.3396347 38.8682771,39.1878091 C27.1238177,50.8841981 27.0919351,69.8837569 38.8057936,81.6107381 C50.5196922,93.3376794 69.5476878,93.3695514 81.2921873,81.6731225 C93.0366467,69.9767336 93.0685694,50.9771748 81.3546708,39.2502335 C75.4976815,33.3867029 67.8293108,30.4507586 60.1427157,30.4407211 L60.1427157,30.4408011 Z M60.0802322,40.437416 C63.5839959,40.441375 67.1037809,41.3572255 70.2169024,43.1864071 L42.8103868,70.5520294 C38.2844167,62.8790322 39.332738,52.8271112 45.9389689,46.2478799 C49.8538421,42.3490569 54.9559023,40.4306977 60.0802322,40.437416 L60.0802322,40.437416 Z M77.3501177,50.2464779 C81.9072895,57.9253536 80.840904,68.0208237 74.2214955,74.6131317 C67.6084956,81.1990813 57.5565387,82.1671187 49.8809984,77.6121002 L77.3501177,50.2464779 L77.3501177,50.2464779 Z" id="path5897-6-8-2-4" fill="#FFFFFF" sketch:type="MSShapeGroup"></path>
            <path d="M180.30334,270.380673 C172.616866,270.368676 164.901152,273.279507 159.028902,279.127681 C147.284442,290.82407 147.25256,309.823629 158.966418,321.55061 C170.680317,333.277552 189.708312,333.309424 201.452812,321.612995 C213.197271,309.916606 213.229194,290.917047 201.515295,279.190106 C195.658306,273.326575 187.989935,270.390631 180.30334,270.380593 L180.30334,270.380673 Z M180.240857,280.377288 C183.744621,280.381247 187.264406,281.297098 190.377527,283.126279 L162.971011,310.491902 C158.445041,302.818904 159.493363,292.766983 166.099594,286.187752 C170.014467,282.288929 175.116527,280.37057 180.240857,280.377288 L180.240857,280.377288 Z M197.510742,290.18635 C202.067914,297.865226 201.001529,307.960696 194.38212,314.553004 C187.76912,321.138954 177.717163,322.106991 170.041623,317.551972 L197.510742,290.18635 L197.510742,290.18635 Z" id="path5897-6-8-5-1" fill="#FFFFFF" sketch:type="MSShapeGroup"></path>
        </g>
    </g>
</svg>