<svg width="244px" height="364px" viewBox="0 0 244 364" version="1.1" xmlns="http://www.w3.org/2000/svg" xmlns:xlink="http://www.w3.org/1999/xlink" xmlns:sketch="http://www.bohemiancoding.com/sketch/ns" data-draggable=true data-id="{{_id}}">
    <!-- Generator: Sketch 3.3.3 (12081) - http://www.bohemiancoding.com/sketch -->
    <title>wild</title>
    <desc>Created with Sketch.</desc>
    <defs></defs>
    <g id="Page-1" stroke="none" stroke-width="1" fill="none" fill-rule="evenodd" sketch:type="MSPage">
        <g id="wild" sketch:type="MSLayerGroup" transform="translate(1.176241, 1.637195)">
            <rect id="rect2987-8-5-81-2-4-9" stroke="#000000" stroke-width="2" fill="#FFFFFF" sketch:type="MSShapeGroup" x="0" y="0.362149247" width="240.321249" height="359.909808" rx="40"></rect>
            <rect id="rect3757-26-33-5-9-0-0" fill="#000000" sketch:type="MSShapeGroup" x="20.0267708" y="20.3571386" width="200.267708" height="319.91983" rx="20"></rect>
            <path d="M180.240937,80.3420467 C91.7570562,80.3420467 20.0267708,151.95854 20.0267708,240.301961 C20.0267708,262.387827 37.9593421,280.29194 60.0803123,280.29194 C148.564193,280.29194 220.294479,208.675447 220.294479,120.332025 C220.294479,98.24616 202.361907,80.3420467 180.240937,80.3420467 L180.240937,80.3420467 Z" id="path3773-0-4-8-4-60-3-86-5-7-5" fill="#FFFFFF" sketch:type="MSShapeGroup"></path>
            <path d="M31.7924986,180.316993 C24.2697426,198.854228 20.0267708,219.070642 20.0267708,240.301961 C20.0267708,262.387827 37.9593421,280.29194 60.0803123,280.29194 L120.160625,180.316993 L31.7924986,180.316993 L31.7924986,180.316993 Z" id="path3773-0-4-8-8-7-9-0-9-1" fill="#FFAA00" sketch:type="MSShapeGroup"></path>
            <path d="M120.160625,180.316993 L60.0803123,280.29194 C127.299067,280.29194 184.749364,238.91307 208.528751,180.316993 L120.160625,180.316993 L120.160625,180.316993 Z" id="path3773-0-4-8-8-5-6-5-0-08-2" fill="#00AA00" sketch:type="MSShapeGroup"></path>
            <path d="M180.240937,80.3420467 C113.022182,80.3420467 55.5718857,121.720917 31.7924986,180.316993 L120.160625,180.316993 L180.240937,80.3420467 L180.240937,80.3420467 Z" id="path3773-0-4-8-8-1-4-3-1-0" fill="#FF5555" sketch:type="MSShapeGroup"></path>
            <path d="M180.240937,80.3420467 L120.160625,180.316993 L208.528751,180.316993 C216.051507,161.779759 220.294479,141.563345 220.294479,120.332025 C220.294479,98.24616 202.361907,80.3420467 180.240937,80.3420467 L180.240937,80.3420467 Z" id="path3773-0-4-8-8-5-8-3-9-4-9" fill="#5555FF" sketch:type="MSShapeGroup"></path>
            <path d="M32.9815881,55.34816 C31.1008741,59.9824687 30.0401562,65.0365721 30.0401562,70.344402 C30.0401562,75.8658684 34.5233491,80.3418967 40.0535416,80.3418967 L55.0736196,55.34816 L32.9815881,55.34816 L32.9815881,55.34816 Z" id="path3773-0-4-8-8-7-9-5-7-0-8" fill="#FFAA00" sketch:type="MSShapeGroup"></path>
            <path d="M55.0736196,55.34816 L40.0535416,80.3418967 C56.8582052,80.3418967 71.2208044,69.997179 77.1656511,55.34816 L55.0736196,55.34816 L55.0736196,55.34816 Z" id="path3773-0-4-8-8-5-6-5-08-9-79-9" fill="#00AA00" sketch:type="MSShapeGroup"></path>
            <path d="M70.0936977,30.3544233 C53.2890341,30.3544233 38.9264349,40.699141 32.9815881,55.34816 L55.0736196,55.34816 L70.0936977,30.3544233 L70.0936977,30.3544233 Z" id="path3773-0-4-8-8-1-4-39-9-5-1" fill="#FF5555" sketch:type="MSShapeGroup"></path>
            <path d="M70.0936977,30.3544233 L55.0736196,55.34816 L77.1656511,55.34816 C79.0463652,50.7138514 80.1070831,45.6597479 80.1070831,40.351918 C80.1070831,34.8304517 75.6238902,30.3544233 70.0936977,30.3544233 L70.0936977,30.3544233 Z" id="path3773-0-4-8-8-5-8-3-3-7-38-7" fill="#5555FF" sketch:type="MSShapeGroup"></path>
            <path d="M163.155598,305.285527 C161.274884,309.919836 160.214166,314.973939 160.214166,320.281769 C160.214166,325.803235 164.697359,330.279264 170.227552,330.279264 L185.24763,305.285527 L163.155598,305.285527 L163.155598,305.285527 Z" id="path3773-0-4-8-8-7-9-5-3-2-3" fill="#FFAA00" sketch:type="MSShapeGroup"></path>
            <path d="M185.24763,305.285527 L170.227552,330.279264 C187.032215,330.279264 201.394814,319.934546 207.339661,305.285527 L185.24763,305.285527 L185.24763,305.285527 Z" id="path3773-0-4-8-8-5-6-5-08-5-3-3" fill="#00AA00" sketch:type="MSShapeGroup"></path>
            <path d="M200.267708,280.29179 C183.463044,280.29179 169.100445,290.636508 163.155598,305.285527 L185.24763,305.285527 L200.267708,280.29179 L200.267708,280.29179 Z" id="path3773-0-4-8-8-1-4-39-7-2-0" fill="#FF5555" sketch:type="MSShapeGroup"></path>
            <path d="M200.267708,280.29179 L185.24763,305.285527 L207.339661,305.285527 C209.220375,300.651218 210.281093,295.597115 210.281093,290.289285 C210.281093,284.767819 205.7979,280.29179 200.267708,280.29179 L200.267708,280.29179 Z" id="path3773-0-4-8-8-5-8-3-3-6-1-7" fill="#5555FF" sketch:type="MSShapeGroup"></path>
            <path d="M180.240937,80.3419967 C113.022182,80.3419967 55.5718857,121.720867 31.7924986,180.316943 C24.2697426,198.854178 20.0267708,219.070592 20.0267708,240.301912 C20.0267708,262.387777 37.9593421,280.29189 60.0803123,280.29189 C127.299067,280.29189 184.749364,238.91302 208.528751,180.316943 C216.051507,161.779709 220.294479,141.563295 220.294479,120.331975 C220.294479,98.24611 202.361907,80.3419967 180.240937,80.3419967 L180.240937,80.3419967 Z" id="path3773-0-4-8-8-7-9-0-03-8-0-6" stroke="#FFFFFF" stroke-width="4" sketch:type="MSShapeGroup"></path>
            <path d="M70.0936977,30.3545233 C53.2890341,30.3545233 38.9264349,40.699241 32.9815881,55.34826 C31.1008741,59.9825687 30.0401562,65.0366721 30.0401562,70.344502 C30.0401562,75.8659684 34.5233491,80.3419967 40.0535416,80.3419967 C56.8582052,80.3419967 71.2208044,69.997279 77.1656511,55.34826 C79.0463652,50.7139513 80.1070831,45.6598479 80.1070831,40.352018 C80.1070831,34.8305516 75.6238902,30.3545233 70.0936977,30.3545233 L70.0936977,30.3545233 Z" id="path3773-0-4-8-8-7-9-0-03-8-9-4-6" stroke="#FFFFFF" stroke-width="4" sketch:type="MSShapeGroup"></path>
            <path d="M200.267708,280.29189 C183.463044,280.29189 169.100445,290.636608 163.155598,305.285627 C161.274884,309.919936 160.214166,314.974039 160.214166,320.281869 C160.214166,325.803335 164.697359,330.279364 170.227552,330.279364 C187.032215,330.279364 201.394814,319.934646 207.339661,305.285627 C209.220375,300.651318 210.281093,295.597215 210.281093,290.289385 C210.281093,284.767919 205.7979,280.29189 200.267708,280.29189 L200.267708,280.29189 Z" id="path3773-0-4-8-8-7-9-0-03-8-9-5-07-0" stroke="#FFFFFF" stroke-width="4" sketch:type="MSShapeGroup"></path>
        </g>
    </g>
</svg>