<svg width="244px" height="364px" viewBox="0 0 244 364" version="1.1" xmlns="http://www.w3.org/2000/svg" xmlns:xlink="http://www.w3.org/1999/xlink" xmlns:sketch="http://www.bohemiancoding.com/sketch/ns" data-draggable=true data-id="{{_id}}">
    <!-- Generator: Sketch 3.3.3 (12081) - http://www.bohemiancoding.com/sketch -->
    <title>UNO_cards_deck</title>
    <desc>Created with Sketch.</desc>
    <defs></defs>
    <g id="Page-1" stroke="none" stroke-width="1" fill="none" fill-rule="evenodd" sketch:type="MSPage">
        <g id="wildDrawFour" sketch:type="MSLayerGroup" transform="translate(1.031233, 1.682806)">
            <rect id="rect2987-8-5-81-2-1" stroke="#000000" stroke-width="2" fill="#FFFFFF" sketch:type="MSShapeGroup" x="0" y="0.448357049" width="240.321249" height="359.909808" rx="10"></rect>
            <rect id="rect3757-26-33-5-9-9" fill="#000000" sketch:type="MSShapeGroup" x="20.0267708" y="20.4433464" width="200.267708" height="319.91983" rx="5"></rect>
            <path d="M180.240937,80.4283145 C91.7570962,80.4283145 20.0267708,152.044808 20.0267708,240.388229 C20.0267708,262.474095 37.9593421,280.378208 60.0803123,280.378208 C148.564153,280.378208 220.294479,208.761715 220.294479,120.418293 C220.294479,98.3324278 202.361907,80.4283145 180.240937,80.4283145 L180.240937,80.4283145 Z" id="path3773-0-4-8-4-60-3-86-5-6" fill="#FFFFFF" sketch:type="MSShapeGroup"></path>
            <path d="M79.7065477,30.4408011 L60.0803123,70.4307798 L60.0803123,80.4283145 L84.1124373,80.4283145 L84.1124373,90.4258491 L94.1258226,90.4258491 L94.1258226,80.4283145 L100.133854,80.4283145 L100.133854,70.4307798 L94.1258226,70.4307798 L94.1258226,50.4358304 L84.1124373,50.4358304 L84.1124373,70.4307798 L70.4942331,70.4307798 L90.1204685,30.4408011 L79.7065477,30.4408011 Z" id="rect3980-7-6-2-9-5-60-5-3-1-5" fill="#FFFFFF" sketch:type="MSShapeGroup"></path>
            <path d="M34.0455103,50.4357504 L34.0455103,60.4333251 L24.0321249,60.4333251 L24.0321249,70.4306598 L34.0455103,70.4306598 L34.0455103,80.4282345 L44.0588957,80.4282345 L44.0588957,70.4306598 L54.0722811,70.4306598 L54.0722811,60.4333251 L44.0588957,60.4333251 L44.0588957,50.4357504 L34.0455103,50.4357504 L34.0455103,50.4357504 Z" id="rect5649-4" fill="#FFFFFF" sketch:type="MSShapeGroup"></path>
            <path d="M160.614702,330.365721 L180.240937,290.375743 L180.240937,280.378208 L156.208812,280.378208 L156.208812,270.380673 L146.195427,270.380673 L146.195427,280.378208 L140.187395,280.378208 L140.187395,290.375743 L146.195427,290.375743 L146.195427,310.370692 L156.208812,310.370692 L156.208812,290.375743 L169.827016,290.375743 L150.200781,330.365721 L160.614702,330.365721 Z" id="rect3980-7-6-2-9-5-60-5-3-1-8-9" fill="#FFFFFF" sketch:type="MSShapeGroup"></path>
            <path d="M206.275739,310.370772 L206.275739,300.373197 L216.289124,300.373197 L216.289124,290.375863 L206.275739,290.375863 L206.275739,280.378288 L196.262354,280.378288 L196.262354,290.375863 L186.248968,290.375863 L186.248968,300.373197 L196.262354,300.373197 L196.262354,310.370772 L206.275739,310.370772 L206.275739,310.370772 Z" id="rect5649-1-1" fill="#FFFFFF" sketch:type="MSShapeGroup"></path>
            <g id="g6111-38-2" transform="translate(72.096335, 126.967852)" sketch:type="MSShapeGroup">
                <rect id="rect6095-2-9" stroke="#000000" stroke-width="2.03962348" fill="#FFFFFF" x="0.858373849" y="3.44780866" width="34.3315209" height="89.9774972" rx="2.5"></rect>
                <rect id="rect6097-5-7" fill="#FF5555" x="8.01076163" y="13.445381" width="20.0267134" height="69.9824641" rx="2.4999874"></rect>
            </g>
            <g id="g6111-62-2-1" transform="translate(112.149836, 96.975368)" sketch:type="MSShapeGroup">
                <rect id="rect6095-14-0-3" stroke="#000000" stroke-width="2.03962348" fill="#FFFFFF" x="0.858373849" y="3.44780866" width="34.3315209" height="89.9774972" rx="2.5"></rect>
                <rect id="rect6097-6-3-2" fill="#5555FF" x="8.01076163" y="13.445381" width="20.0267134" height="69.9824641" rx="2.4999874"></rect>
            </g>
            <g id="g6111-3-5" transform="translate(102.136491, 156.960336)" sketch:type="MSShapeGroup">
                <rect id="rect6095-0-3" stroke="#000000" stroke-width="2.03962348" fill="#FFFFFF" x="0.858373849" y="3.44780866" width="34.3315209" height="89.9774972" rx="2.5"></rect>
                <rect id="rect6097-7-4" fill="#FFAA00" x="8.01076163" y="13.445381" width="20.0267134" height="69.9824641" rx="2.4999874"></rect>
            </g>
            <g id="g6111-62-7-3" transform="translate(142.189992, 126.967892)" sketch:type="MSShapeGroup">
                <rect id="rect6095-14-8-2" stroke="#000000" stroke-width="2.03962348" fill="#FFFFFF" x="0.858373849" y="3.44780866" width="34.3315209" height="89.9774972" rx="2.5"></rect>
                <rect id="rect6097-6-7-1" fill="#55AA55" x="8.01076163" y="13.445381" width="20.0267134" height="69.9824641" rx="2.4999874"></rect>
            </g>
        </g>
    </g>
</svg>